<?xml version="1.0" standalone="no"?>
<!DOCTYPE svg PUBLIC "-//W3C//DTD SVG 20010904//EN"
 "http://www.w3.org/TR/2001/REC-SVG-20010904/DTD/svg10.dtd">
<svg version="1.0" xmlns="http://www.w3.org/2000/svg"
 width="1468.000000pt" height="1468.000000pt" viewBox="0 0 1468.000000 1468.000000"
 preserveAspectRatio="xMidYMid meet">
<metadata>
Created by potrace 1.14, written by Peter Selinger 2001-2017
</metadata>
<g transform="translate(0.000000,1468.000000) scale(0.100000,-0.100000)"
fill="#000000" stroke="none">
<path d="M5647 13630 c-86 -4 -160 -10 -163 -13 -4 -3 7 -23 24 -45 80 -101
190 -304 256 -472 81 -204 143 -493 167 -778 15 -180 7 -626 -15 -807 -60
-494 -184 -1012 -345 -1445 -28 -74 -49 -136 -47 -137 5 -6 93 94 169 192 334
431 573 973 654 1487 22 139 25 601 5 773 -43 373 -148 841 -265 1180 l-24 70
-129 1 c-71 1 -200 -2 -287 -6z"/>
<path d="M6110 13598 c191 -253 386 -656 486 -1002 114 -395 162 -777 151
-1201 -15 -538 -101 -1035 -266 -1534 -92 -277 -237 -607 -362 -820 l-31 -55
38 31 c22 17 76 69 121 116 368 384 625 1009 722 1757 11 92 21 136 25 120 29
-117 45 -559 27 -780 -42 -530 -160 -927 -417 -1404 -222 -413 -482 -773 -757
-1049 -71 -71 -120 -126 -110 -124 10 3 63 18 118 32 230 61 631 205 860 310
44 20 76 32 70 27 -5 -6 -75 -60 -155 -122 -452 -351 -830 -720 -1093 -1067
-332 -439 -517 -872 -519 -1215 l0 -107 -47 26 c-544 313 -895 695 -1040 1133
-124 374 -120 772 14 1435 106 527 159 699 503 1620 325 872 466 1318 581
1840 75 338 141 777 157 1030 19 319 -68 652 -241 923 l-40 63 -75 -6 c-980
-84 -2089 -309 -2910 -590 -180 -62 -443 -164 -564 -219 l-76 -35 0 -4876 0
-4877 77 -90 c238 -280 646 -698 893 -914 497 -435 987 -767 1515 -1029 618
-307 1159 -475 1815 -566 137 -19 214 -22 675 -26 430 -4 550 -2 695 12 1145
107 2303 621 3325 1476 140 117 426 377 440 398 7 12 -94 94 -225 183 -399
273 -923 485 -1485 602 -263 54 -623 99 -1600 201 -1022 106 -1376 156 -1720
241 -521 130 -884 331 -1236 683 -491 493 -778 1120 -890 1946 -15 110 -22
226 -25 435 l-4 285 35 -95 c217 -579 702 -1154 1360 -1615 437 -306 988 -580
1595 -792 164 -58 367 -108 1090 -273 1026 -233 1544 -378 2025 -567 588 -232
1035 -519 1319 -848 33 -38 63 -70 67 -70 8 0 118 120 266 291 l113 132 0 516
0 515 -37 10 c-452 119 -906 195 -1438 241 -66 6 -370 15 -675 20 -670 11
-878 24 -1255 76 -463 64 -913 179 -1273 325 -131 54 -302 135 -302 145 0 3
89 2 198 -2 223 -7 593 5 1207 41 666 39 852 46 1265 46 633 0 1079 -36 1650
-132 210 -35 632 -123 652 -135 5 -3 7 1816 6 4043 l-3 4047 -110 49 c-249
110 -639 246 -990 347 -212 61 -576 152 -582 146 -2 -2 9 -35 26 -73 151 -344
184 -873 86 -1358 -162 -803 -716 -1676 -1601 -2526 -362 -347 -783 -653
-1153 -838 -100 -50 -304 -134 -356 -147 -28 -7 -26 -3 31 58 107 115 224 312
302 509 95 240 186 603 227 909 9 63 18 129 21 145 4 26 22 41 126 105 332
205 661 440 878 628 63 54 180 166 260 248 359 369 601 750 779 1226 79 214
96 306 96 538 0 152 -4 214 -19 280 -37 174 -115 385 -144 394 -37 11 -429 78
-622 106 -733 107 -1467 160 -2213 160 l-359 0 32 -42z m-1303 -703 c43 -201
2 -632 -112 -1171 -115 -546 -263 -1016 -621 -1972 l-39 -104 -95 7 c-194 13
-358 38 -509 77 -389 99 -658 42 -996 -212 -46 -35 -57 -38 -155 -49 -203 -22
-429 -85 -582 -162 -32 -16 -60 -29 -63 -29 -3 0 -5 63 -5 140 l0 140 63 41
c145 94 346 171 547 209 33 6 68 24 114 59 178 135 422 203 726 203 227 0 457
-34 705 -106 66 -19 126 -36 134 -38 10 -2 45 72 118 247 296 711 517 1389
632 1947 58 281 82 475 88 718 6 247 8 249 50 55z m5603 -1035 c-72 -735 -278
-1429 -576 -1946 -126 -218 -263 -402 -541 -726 -340 -395 -703 -753 -988
-972 -127 -98 -127 -98 -74 -82 263 81 564 256 900 523 152 121 566 530 699
690 46 56 86 101 87 99 7 -7 -71 -194 -132 -316 -256 -509 -628 -934 -1140
-1301 -459 -329 -922 -594 -1230 -705 l-90 -32 40 -10 c276 -73 676 -142 995
-171 l185 -17 -140 -27 c-760 -146 -1660 -176 -2335 -77 -74 11 -138 20 -142
20 -5 0 -8 4 -8 9 0 19 207 249 395 437 273 273 508 480 831 731 129 100 220
166 558 403 265 186 523 408 827 710 253 252 371 379 585 636 512 613 921
1265 1144 1824 49 122 125 360 142 442 l13 63 3 -45 c2 -25 -2 -97 -8 -160z
m-7119 -2465 c207 -55 397 -85 641 -100 l108 -7 -18 -30 c-59 -104 -220 -215
-371 -257 -92 -26 -262 -45 -320 -36 -40 6 -44 5 -32 -9 25 -30 125 -84 212
-114 78 -28 182 -51 302 -67 26 -3 47 -7 47 -8 0 -2 -15 -39 -34 -83 -79 -188
-155 -467 -200 -744 -27 -158 -56 -405 -56 -472 0 -21 -3 -38 -7 -37 -16 1
-220 255 -336 417 -100 142 -253 395 -298 497 -19 41 -41 77 -49 80 -8 3 -64
89 -125 191 -121 205 -154 248 -244 314 -33 25 -61 48 -61 51 0 4 8 9 18 11
13 4 22 22 31 62 7 33 17 54 23 50 9 -6 8 -36 -3 -73 -2 -8 7 -17 22 -22 20
-8 36 -3 80 21 54 29 54 30 21 30 -54 0 -34 20 65 66 77 36 90 39 86 23 -3
-11 -20 -31 -37 -44 -35 -28 -33 -29 31 -14 41 11 47 16 68 63 21 47 27 52 71
65 l49 14 -84 9 c-91 9 -84 12 -251 -85 -25 -14 -63 -29 -85 -32 l-40 -7 39
33 c143 124 298 218 411 250 91 26 214 24 326 -6z m-1456 -824 c166 -30 347
-71 426 -96 38 -13 56 -29 113 -100 66 -84 153 -165 216 -202 21 -12 43 -41
65 -83 74 -146 217 -370 351 -550 104 -142 309 -386 329 -394 13 -5 2 -20 -48
-69 -46 -46 -71 -80 -88 -123 -24 -58 -24 -65 -24 -379 1 -340 9 -446 61 -745
114 -667 377 -1263 757 -1720 101 -121 335 -353 447 -442 367 -294 789 -480
1344 -593 339 -69 676 -114 1506 -200 668 -69 1123 -120 1305 -146 506 -71
979 -213 1358 -406 59 -30 107 -58 107 -62 0 -10 -147 -131 -160 -131 -6 0
-34 13 -63 30 -140 79 -440 189 -697 255 -417 107 -871 174 -1830 270 -1039
104 -1434 158 -1820 251 -450 108 -846 271 -1156 476 -176 116 -277 199 -424
347 -420 422 -686 993 -829 1774 -152 832 -153 1400 -5 1577 l26 30 -273 425
-272 424 -63 31 c-73 36 -141 106 -197 202 l-38 65 -110 17 c-90 14 -339 73
-484 114 l-30 8 -3 93 c-3 93 -3 94 20 87 13 -4 95 -20 183 -35z m4245 -2187
c228 -31 598 -19 726 22 11 3 -5 -17 -35 -46 -66 -63 -184 -133 -273 -162 -38
-12 -68 -25 -68 -28 0 -14 218 -19 374 -9 190 11 303 27 571 79 223 43 322 56
505 65 193 10 506 -16 730 -61 81 -17 114 -34 64 -34 -39 0 -484 -64 -664 -96
-391 -69 -630 -127 -917 -224 -322 -109 -569 -164 -853 -190 -122 -11 -660
-14 -697 -4 -20 6 -23 13 -23 63 0 111 48 260 118 371 81 128 252 288 296 276
12 -3 77 -13 146 -22z m3404 -343 c355 -63 666 -234 925 -507 45 -47 81 -87
79 -89 -2 -1 -77 11 -168 26 -353 60 -705 89 -1080 89 -396 0 -553 -18 -1230
-141 -619 -113 -865 -149 -1200 -180 -175 -17 -671 -17 -820 -1 -143 16 -370
52 -388 61 -8 4 40 8 105 9 479 7 1205 163 1868 402 634 228 946 311 1325 350
143 15 449 5 584 -19z"/>
</g>
</svg>
