<?xml version="1.0" standalone="no"?>
<!DOCTYPE svg PUBLIC "-//W3C//DTD SVG 20010904//EN"
 "http://www.w3.org/TR/2001/REC-SVG-20010904/DTD/svg10.dtd">
<svg version="1.0" xmlns="http://www.w3.org/2000/svg"
 width="2047.000000pt" height="2047.000000pt" viewBox="0 0 2047.000000 2047.000000"
 preserveAspectRatio="xMidYMid meet">
<metadata>
Created by potrace 1.14, written by Peter Selinger 2001-2017
</metadata>
<g transform="translate(0.000000,2047.000000) scale(0.100000,-0.100000)"
fill="#000000" stroke="none">
<path d="M10079 20434 c-11 -27 -15 -211 -5 -259 2 -11 7 -49 11 -85 4 -36 9
-76 10 -90 2 -14 7 -45 10 -70 3 -25 15 -99 26 -165 11 -66 22 -136 25 -155 3
-19 8 -44 10 -55 25 -148 66 -393 79 -480 10 -60 19 -119 21 -130 17 -91 23
-275 11 -350 -6 -41 -15 -120 -22 -209 -8 -97 -17 -191 -20 -206 -2 -8 -6 -53
-10 -100 -4 -47 -8 -87 -10 -90 -2 -3 -6 -36 -9 -75 -6 -59 -22 -175 -42 -287
-39 -233 -94 -436 -157 -580 -13 -29 -29 -79 -37 -110 -7 -32 -18 -58 -24 -58
-6 0 -49 7 -96 15 -47 9 -101 18 -120 20 -19 3 -57 9 -85 15 -27 5 -68 12 -90
15 -22 3 -51 8 -65 10 -14 2 -45 6 -70 9 -25 3 -54 7 -65 10 -11 2 -45 7 -75
10 -30 4 -66 8 -80 10 -27 5 -92 13 -167 21 -27 3 -68 8 -93 11 -25 4 -61 8
-80 10 -19 1 -64 6 -100 9 -36 3 -83 8 -105 10 -22 2 -71 7 -110 10 -38 3 -90
7 -115 10 -25 2 -99 7 -165 10 -66 4 -140 9 -165 10 -323 23 -1058 23 -1465 0
-104 -6 -252 -16 -319 -21 -55 -4 -64 -2 -113 31 -52 34 -74 48 -168 100 -154
86 -464 195 -786 275 -68 17 -132 34 -142 36 -16 5 -15 -1 7 -58 13 -35 45
-110 70 -167 26 -58 45 -103 42 -100 -2 2 -32 39 -66 83 -206 260 -516 508
-836 667 -157 78 -173 85 -269 119 -33 12 -69 26 -80 31 -25 11 -220 63 -300
79 -65 14 -72 15 -155 25 -30 4 -74 10 -97 15 -53 9 -416 10 -431 1 -8 -5 -4
-15 11 -31 12 -14 68 -77 124 -140 108 -123 117 -132 291 -317 61 -66 115
-123 120 -128 4 -4 -27 17 -68 47 -274 200 -595 374 -905 489 -44 17 -91 35
-104 40 -13 5 -89 29 -170 53 -207 62 -451 116 -631 141 -25 3 -72 10 -105 15
-133 20 -250 32 -435 45 -41 3 -106 8 -145 10 -135 10 -569 15 -559 6 5 -5
138 -105 295 -223 158 -119 340 -257 405 -308 66 -51 137 -107 159 -124 68
-54 497 -407 575 -474 64 -55 138 -121 259 -230 190 -171 681 -655 681 -672 0
-3 -71 -28 -157 -55 -163 -50 -675 -223 -798 -269 -38 -15 -77 -29 -85 -31
-58 -14 -693 -264 -700 -275 -3 -5 -5 -2635 -5 -5847 l0 -5838 100 -140 c316
-446 572 -752 932 -1115 661 -667 1383 -1161 2198 -1505 50 -21 104 -44 120
-51 123 -52 433 -159 640 -220 181 -54 531 -139 655 -160 14 -2 57 -11 95 -19
39 -8 88 -17 110 -20 22 -3 66 -10 98 -16 32 -5 72 -12 90 -14 18 -2 66 -9
107 -15 41 -6 95 -13 120 -15 25 -3 59 -7 75 -10 17 -2 64 -7 105 -10 41 -4
85 -8 97 -10 12 -2 63 -6 115 -10 51 -4 111 -8 133 -10 262 -24 940 -24 1180
-1 17 2 62 6 100 10 39 4 81 9 95 11 14 2 48 6 75 10 28 3 61 8 75 10 14 2 54
9 90 14 36 6 76 13 90 16 14 3 36 7 50 10 76 14 230 47 283 61 34 9 72 18 84
20 12 2 84 22 160 45 76 22 145 42 154 44 40 9 279 93 429 150 420 160 857
378 1307 650 l72 43 49 -46 c345 -325 602 -508 867 -617 204 -84 835 -282
1175 -370 l165 -42 205 -118 c299 -171 588 -310 845 -407 158 -59 454 -145
565 -163 19 -3 53 -10 75 -15 22 -5 63 -12 90 -16 28 -3 53 -8 56 -10 3 -2 33
-6 66 -9 33 -3 69 -7 80 -9 61 -12 247 -20 458 -21 299 0 477 13 710 51 50 9
101 17 115 19 283 47 750 180 1015 290 17 7 82 34 145 60 235 97 636 304 830
429 205 132 468 314 506 350 6 6 29 25 50 41 67 52 206 176 279 250 368 371
566 747 621 1180 8 62 8 304 0 342 -3 15 -8 44 -11 63 -25 163 -108 379 -190
489 l-24 34 -6 -29 c-30 -148 -125 -471 -162 -554 -3 -8 -7 -17 -8 -20 -14
-39 -72 -175 -114 -264 -239 -507 -618 -971 -1111 -1359 -47 -37 -91 -72 -99
-78 -7 -7 -88 -62 -180 -124 -537 -359 -1135 -595 -1776 -699 -16 -3 -52 -8
-80 -11 -27 -3 -61 -8 -75 -10 -121 -21 -531 -33 -655 -20 -22 2 -74 6 -115
10 -242 18 -483 67 -725 146 -139 45 -162 57 -114 56 32 -1 169 10 234 18 106
13 133 16 155 20 14 3 41 7 60 10 63 10 194 36 225 45 17 5 44 11 60 14 103
16 436 125 650 213 727 296 1424 795 2011 1438 722 792 988 1467 850 2160 -33
167 -109 346 -208 494 -49 72 -177 214 -207 231 -14 7 -16 -20 -16 -253 -1
-281 -14 -428 -61 -667 -36 -181 -116 -465 -163 -575 -5 -11 -26 -60 -46 -110
-92 -223 -219 -460 -368 -685 -85 -129 -215 -304 -281 -380 -17 -20 -56 -65
-86 -100 -89 -104 -326 -338 -450 -444 -428 -365 -919 -647 -1431 -820 -100
-34 -381 -109 -451 -121 -18 -3 -58 -10 -88 -15 -327 -57 -708 -67 -964 -25
-11 2 -37 6 -56 9 -62 10 -170 31 -212 42 -5 1 -14 2 -21 3 -13 1 -66 43 -171
135 -32 28 -67 58 -77 67 -10 9 -62 56 -116 105 -53 49 -107 98 -119 109 -36
33 -207 189 -218 200 -102 94 -331 277 -456 363 -41 28 -79 55 -85 60 -5 4
-27 18 -47 31 -21 12 -38 24 -38 25 0 2 26 -1 58 -5 31 -5 95 -13 142 -19 47
-6 101 -12 120 -15 19 -2 62 -7 95 -10 33 -3 76 -8 95 -10 19 -2 64 -7 100
-10 36 -3 81 -8 100 -10 147 -18 712 -26 880 -12 119 10 253 28 400 53 162 27
512 136 720 223 135 57 388 182 432 212 14 11 29 19 32 19 29 0 436 277 572
389 17 14 42 35 55 45 212 168 511 468 719 720 346 420 642 899 865 1402 97
219 199 509 222 633 2 14 6 28 8 32 3 4 7 24 11 45 3 22 9 57 14 79 5 22 12
63 15 90 4 28 9 61 11 75 3 14 7 104 9 200 2 155 -10 325 -29 386 -3 11 -8 33
-10 49 -19 104 -81 275 -147 403 -130 249 -299 426 -533 557 -69 38 -85 41
-67 8 17 -29 87 -268 109 -373 34 -159 41 -201 53 -300 6 -52 14 -122 19 -155
8 -64 6 -563 -3 -605 -3 -14 -8 -55 -12 -92 -3 -37 -8 -77 -10 -90 -2 -13 -6
-41 -10 -63 -18 -122 -73 -369 -119 -530 -94 -331 -276 -737 -479 -1070 -98
-160 -309 -454 -382 -531 -5 -6 -41 -47 -79 -91 -81 -95 -299 -311 -406 -403
-41 -36 -77 -67 -80 -70 -39 -41 -267 -205 -450 -322 -186 -121 -511 -273
-745 -350 -48 -15 -238 -69 -265 -74 -14 -3 -32 -7 -40 -9 -8 -3 -33 -7 -55
-10 -22 -4 -47 -8 -55 -10 -8 -3 -33 -7 -55 -10 -22 -4 -51 -8 -64 -10 -121
-20 -537 -27 -671 -11 -196 23 -473 72 -630 111 -29 7 -207 46 -349 75 -80 17
-146 32 -148 34 -2 2 8 13 22 25 159 124 640 597 871 856 68 76 221 260 273
328 l52 68 2 5846 2 5845 -225 90 c-123 49 -225 90 -226 91 -1 1 -5 72 -8 157
-3 85 -8 169 -10 185 -2 17 -7 57 -10 90 -10 88 -36 237 -62 360 -9 38 -18 81
-20 95 -15 79 -131 510 -153 565 -4 11 -36 108 -71 215 -157 490 -301 823
-360 830 -33 5 -38 -3 -55 -72 -10 -40 -23 -81 -30 -91 -12 -17 -14 -16 -32
10 -11 15 -68 121 -126 235 -129 250 -151 289 -287 493 -343 516 -863 970
-1450 1266 -179 90 -308 148 -345 155 -31 6 -36 3 -46 -22z"/>
</g>
</svg>
